#tb 0: 1/25
#media_type 0: video
#codec_id 0: rawvideo
#dimensions 0: 352x288
#sar 0: 0/1
0,          0,          0,        1,   202752, 0xffa1c502
0,          1,          1,        1,   202752, 0x51752f3c
0,          2,          2,        1,   202752, 0xe683991d
0,          3,          3,        1,   202752, 0xf70200a4
0,          4,          4,        1,   202752, 0x1a4d63ef
